<svg width="512" height="512" viewBox="0 0 512 512" fill="none" xmlns="http://www.w3.org/2000/svg">
<path d="M194.808 295C181.37 295 170 283.312 170 269.5C170 255.687 181.37 244 194.808 244C208.245 244 219.615 255.687 219.615 269.5C219.615 283.312 208.245 295 194.808 295ZM302.308 269.5C302.308 255.687 290.938 244 277.5 244C264.063 244 252.692 255.687 252.692 269.5C252.692 283.312 264.063 295 277.5 295C290.938 295 302.308 283.312 302.308 269.5ZM385 269.5C385 255.687 373.63 244 360.192 244C346.755 244 335.385 255.687 335.385 269.5C335.385 283.312 346.755 295 360.192 295C373.63 295 385 283.312 385 269.5Z" fill="#212121"/>
<path d="M280.55 36C159.303 36 60.1018 135.225 60.1018 256.5V316.636C60.1018 316.636 60.1018 322.65 60.1018 332.673V359.734C60.1018 420.873 13.0061 473.993 10 477C71.7311 477 111.206 392.272 111.206 337.684V335.68C111.206 334.677 111.206 332.673 111.206 331.67V256.5C111.206 162.286 187.36 86.1136 281.552 86.1136C375.743 86.1136 451.898 162.286 451.898 256.5C451.898 350.714 375.743 426.886 281.552 426.886C246.481 426.886 212.411 415.861 184.354 395.816C173.332 387.798 157.299 390.805 149.283 401.83C141.267 412.855 144.273 428.891 155.295 436.909C192.371 462.968 236.46 477 281.552 477C402.798 477 502 377.775 502 256.5C500.998 135.225 401.796 36 280.55 36Z" fill="#F77110"/>
</svg>
